HIERARCHY
ROOT Hips
{
	OFFSET 0.000000 0.000000 0.000000
	CHANNELS 6 Xposition Yposition Zposition Zrotation Yrotation Xrotation
	JOINT LHipJoint
	{
		OFFSET 0.000000 0.000000 0.000000
		CHANNELS 3 Zrotation Yrotation Xrotation
		JOINT LeftHip
		{
			OFFSET 0.070429 -0.092715 0.040477
			CHANNELS 3 Zrotation Yrotation Xrotation
			JOINT LeftKnee
			{
				OFFSET 0.140731 -0.386656 0.000000
				CHANNELS 3 Zrotation Yrotation Xrotation
				JOINT LeftAnkle
				{
					OFFSET 0.133642 -0.367180 0.000000
					CHANNELS 3 Zrotation Yrotation Xrotation
					JOINT LeftToe
					{
						OFFSET 0.008365 -0.022983 0.124964
						CHANNELS 3 Zrotation Yrotation Xrotation
						End Site
						{
							OFFSET 0.000000 0.000000 0.064059
						}
					}
				}
			}
		}
	}
	JOINT RHipJoint
	{
		OFFSET 0.000000 0.000000 0.000000
		CHANNELS 3 Zrotation Yrotation Xrotation
		JOINT RightHip
		{
			OFFSET -0.066785 -0.092715 0.040477
			CHANNELS 3 Zrotation Yrotation Xrotation
			JOINT RightKnee
			{
				OFFSET -0.139168 -0.382361 0.000000
				CHANNELS 3 Zrotation Yrotation Xrotation
				JOINT RightAnkle
				{
					OFFSET -0.134591 -0.369785 0.000000
					CHANNELS 3 Zrotation Yrotation Xrotation
					JOINT RightToe
					{
						OFFSET -0.009852 -0.027067 0.114539
						CHANNELS 3 Zrotation Yrotation Xrotation
						End Site
						{
							OFFSET 0.000000 0.000000 0.059309
						}
					}
				}
			}
		}
	}
	JOINT lowerback
	{
		OFFSET 0.000000 0.000000 0.000000
		CHANNELS 3 Zrotation Yrotation Xrotation
		JOINT Chest
		{
			OFFSET -0.001301 0.112132 0.000180
			CHANNELS 3 Zrotation Yrotation Xrotation
			JOINT Chest2
			{
				OFFSET -0.000405 0.112342 -0.000301
				CHANNELS 3 Zrotation Yrotation Xrotation
				JOINT lowerneck
				{
					OFFSET 0.000000 0.000000 0.000000
					CHANNELS 3 Zrotation Yrotation Xrotation
					JOINT Neck
					{
						OFFSET 0.000054 0.090883 0.006038
						CHANNELS 3 Zrotation Yrotation Xrotation
						JOINT Head
						{
							OFFSET -0.000598 0.090268 0.000743
							CHANNELS 3 Zrotation Yrotation Xrotation
							End Site
							{
								OFFSET -0.000259 0.092175 -0.000334
							}
						}
					}
				}
				JOINT LeftCollar
				{
					OFFSET 0.000000 0.000000 0.000000
					CHANNELS 3 Zrotation Yrotation Xrotation
					JOINT LeftShoulder
					{
						OFFSET 0.172369 0.083022 -0.000958
						CHANNELS 3 Zrotation Xrotation Yrotation
						JOINT LeftElbow
						{
							OFFSET 0.000000 -0.239947 0.000000
							CHANNELS 3 Zrotation Xrotation Yrotation
							JOINT LeftWrist
							{
								OFFSET 0.000000 -0.184906 0.000000
								CHANNELS 3 Zrotation Xrotation Yrotation
								JOINT lhand
								{
									OFFSET 0.000000 0.000000 0.000000
									CHANNELS 3 Zrotation Xrotation Yrotation
									JOINT LFingers
									{
										OFFSET 0.000000 -0.037129 0.000000
										CHANNELS 3 Zrotation Xrotation Yrotation
										End Site
										{
											OFFSET 0.000000 -0.029935 0.000000
										}
									}
								}
								JOINT LThumb
								{
									OFFSET 0.000000 0.000000 0.000000
									CHANNELS 3 Zrotation Xrotation Yrotation
									End Site
									{
										OFFSET 0.000000 -0.030392 0.030392
									}
								}
							}
						}
					}
				}
				JOINT RightCollar
				{
					OFFSET 0.000000 0.000000 0.000000
					CHANNELS 3 Zrotation Yrotation Xrotation
					JOINT RightShoulder
					{
						OFFSET -0.160129 0.074291 -0.012798
						CHANNELS 3 Zrotation Xrotation Yrotation
						JOINT RightElbow
						{
							OFFSET 0.000000 -0.251781 0.000000
							CHANNELS 3 Zrotation Xrotation Yrotation
							JOINT RightWrist
							{
								OFFSET 0.000000 -0.194402 0.000000
								CHANNELS 3 Zrotation Xrotation Yrotation
								JOINT rhand
								{
									OFFSET 0.000000 0.000000 0.000000
									CHANNELS 3 Zrotation Xrotation Yrotation
									JOINT RFingers
									{
										OFFSET 0.000000 -0.034798 0.000000
										CHANNELS 3 Zrotation Xrotation Yrotation
										End Site
										{
											OFFSET 0.000000 -0.028055 0.000000
										}
									}
								}
								JOINT RThumb
								{
									OFFSET 0.000000 0.000000 0.000000
									CHANNELS 3 Zrotation Xrotation Yrotation
									End Site
									{
										OFFSET 0.000000 -0.028484 0.028484
									}
								}
							}
						}
					}
				}
			}
		}
	}
}
MOTION
Frames: 11
Frame Time: 0.008333
0.271524 0.965040 -1.150425 -0.078400 3.196800 10.267400 -0.000003 -0.000001 0.000003 -19.149694 -4.560500 -21.542497 2.382809 9.621601 27.759806 3.932893 -13.291510 -35.998392 7.245905 15.535504 49.798182 0.000004 -0.000002 0.000001 20.536104 8.635903 -16.738905 -2.271489 -9.409999 27.086398 -2.140615 -6.598811 -30.623194 -0.858797 -5.909605 16.522402 1.572300 1.890500 -8.844899 -0.822400 2.399400 -1.158100 -1.446300 1.219301 3.854700 -0.390300 -3.330901 -12.016503 1.448300 -4.459999 2.606502 0.260000 -2.157900 2.992700 -0.000003 0.000000 0.000000 7.868806 10.140212 -45.263005 25.070515 -36.276002 8.331624 1.691903 -5.451800 -18.621193 -0.000000 -0.000000 0.000001 -7.125005 0.000000 -0.000000 -24.973089 46.948415 1.278273 -0.000002 0.000000 -0.000000 0.335702 10.622011 27.472496 -21.458706 -32.359903 -6.293705 -26.862212 22.257908 18.474004 -0.000000 0.000001 0.000000 7.125005 0.000000 0.000001 1.276591 50.506408 -0.173287 
0.271501 0.964842 -1.150363 -0.045200 3.192100 10.289601 -0.000002 -0.000001 0.000003 -19.181101 -4.593003 -21.594596 2.396805 9.647802 27.843502 3.871192 -13.202811 -35.702195 7.197304 15.495806 49.616779 0.000002 -0.000003 0.000003 20.518001 8.512604 -16.853603 -2.260887 -9.389698 27.021997 -2.075511 -6.770911 -30.315303 -0.738398 -5.489506 15.310299 1.250900 1.828500 -9.335701 -0.516200 2.328400 -0.836000 -0.935900 1.180800 4.435300 -0.873500 -3.337899 -12.098600 1.440600 -4.392699 2.344001 0.347000 -2.131800 2.929900 0.000002 0.000001 -0.000000 7.229009 9.662516 -45.011705 24.992313 -36.196212 8.285418 1.719803 -5.326195 -18.636298 0.000004 0.000000 0.000000 -7.125003 0.000000 0.000001 -24.955390 46.965716 1.288580 -0.000002 0.000001 0.000000 -0.284301 10.164008 27.724600 -21.485209 -32.390304 -6.307907 -26.847807 22.048301 18.543603 0.000003 -0.000000 -0.000001 7.125008 0.000000 -0.000002 1.304892 50.579808 -0.179489 
0.271484 0.964831 -1.150250 -0.071700 3.195100 10.286900 -0.000003 -0.000000 0.000002 -19.141492 -4.649604 -21.575996 2.399909 9.653701 27.862304 3.820095 -13.062809 -35.454194 7.174206 15.476908 49.530182 0.000001 -0.000002 0.000003 20.549208 8.556801 -16.809802 -2.258087 -9.384198 27.004799 -2.045712 -6.870212 -30.184802 -0.700596 -5.350201 14.910103 1.502300 1.697100 -8.929601 -0.585600 2.137299 -1.062000 -1.189800 1.087899 3.979902 -1.018600 -3.209201 -12.180497 1.604200 -4.213400 2.612099 0.433600 -2.036300 3.044700 0.000001 -0.000001 -0.000000 7.236008 10.106015 -44.558901 25.054814 -36.259999 8.322318 1.722402 -5.295397 -18.562999 -0.000000 -0.000001 0.000001 -7.125004 0.000000 -0.000001 -24.919494 46.899719 1.243477 -0.000000 -0.000001 -0.000000 -0.278397 10.486609 28.197896 -21.536107 -32.448805 -6.335105 -26.770508 22.033507 18.544005 -0.000001 0.000001 -0.000001 7.125006 0.000003 0.000001 1.382393 50.566913 -0.189687 
0.271422 0.964871 -1.150120 -0.064400 3.201700 10.282701 -0.000001 0.000001 0.000003 -19.152096 -4.613502 -21.578591 2.403706 9.660800 27.885002 3.757192 -12.964612 -35.148396 7.146405 15.454007 49.425878 0.000003 0.000001 0.000004 20.554107 8.545702 -16.790203 -2.254483 -9.377199 26.982497 -2.009010 -6.968511 -30.010400 -0.650897 -5.160605 14.367101 1.484699 1.682000 -8.906101 -0.573100 2.118800 -1.072500 -1.170100 1.078100 3.954000 -1.009700 -3.203999 -12.192003 1.570200 -4.206300 2.654000 0.420900 -2.033800 3.060100 0.000001 -0.000000 -0.000000 7.189209 10.130712 -44.505803 25.040814 -36.245703 8.314021 1.644100 -5.288598 -18.449596 -0.000000 -0.000001 0.000000 -7.125005 -0.000001 0.000001 -24.936498 46.786714 1.170672 -0.000002 -0.000001 -0.000000 -0.305000 10.525109 28.243000 -21.563513 -32.480302 -6.349912 -26.754708 22.042805 18.554310 -0.000003 0.000000 -0.000003 7.125004 0.000001 -0.000003 1.400382 50.575307 -0.192396 
0.271450 0.965226 -1.149990 -0.069900 3.180800 10.290399 -0.000003 0.000002 0.000001 -19.101198 -4.953403 -21.484198 2.404109 9.661401 27.887005 3.710893 -12.559911 -34.914585 7.113307 15.426508 49.301385 0.000001 -0.000001 0.000001 20.547808 8.551805 -16.837904 -2.252289 -9.372898 26.968999 -1.958312 -7.022609 -29.719495 -0.596901 -4.946003 13.754501 1.483000 1.709300 -8.952901 -0.569300 2.154399 -1.053700 -1.159100 1.096098 4.000700 -0.965900 -3.221002 -12.184601 1.534800 -4.233400 2.662200 0.399900 -2.048200 3.059700 0.000001 -0.000001 -0.000001 7.173208 10.089216 -44.526898 25.017405 -36.221702 8.300217 1.700904 -5.272299 -18.510397 -0.000001 0.000000 0.000003 -7.125006 0.000000 0.000001 -24.914186 46.849210 1.210280 -0.000000 -0.000000 -0.000000 -0.261201 10.303809 28.038794 -21.401213 -32.293606 -6.262911 -26.584307 21.842906 18.549805 -0.000003 0.000002 -0.000000 7.125001 0.000003 -0.000003 1.569888 50.540910 -0.214385 
0.271450 0.965424 -1.149855 -0.073900 3.170400 10.292999 -0.000001 -0.000001 0.000003 -19.074096 -5.086203 -21.465695 2.405610 9.664301 27.896303 3.653291 -12.332410 -34.628496 7.071803 15.392005 49.145178 0.000001 0.000001 0.000004 20.552608 8.535303 -16.853000 -2.248686 -9.365899 26.946802 -1.919510 -7.084511 -29.506199 -0.547597 -4.740703 13.170603 1.493200 1.693500 -8.944901 -0.550300 2.131700 -1.057400 -1.148200 1.084800 3.991302 -1.003200 -3.208399 -12.204499 1.531800 -4.211400 2.703200 0.406200 -2.037600 3.078399 0.000002 -0.000001 -0.000000 7.103509 10.106915 -44.432402 25.003810 -36.207902 8.292125 1.705605 -5.249398 -18.479500 -0.000003 0.000001 0.000002 -7.125006 0.000001 0.000001 -24.895886 46.821722 1.191381 -0.000000 -0.000001 -0.000000 -0.290900 10.203907 28.038299 -21.305510 -32.183199 -6.211809 -26.541114 21.804213 18.516704 -0.000000 -0.000002 0.000002 7.125002 -0.000001 0.000003 1.606290 50.497610 -0.217680 
0.271467 0.965667 -1.149730 -0.081200 3.146400 10.301700 -0.000001 0.000001 0.000003 -19.041598 -5.237901 -21.457294 2.407808 9.668302 27.909106 3.597691 -12.077609 -34.350585 7.024707 15.352607 48.967583 0.000001 -0.000004 0.000003 20.556211 8.512006 -16.871503 -2.243486 -9.355898 26.915199 -1.885009 -7.107912 -29.297195 -0.504596 -4.553602 12.639601 1.518600 1.689900 -8.928500 -0.546000 2.124599 -1.073800 -1.159700 1.081400 3.965601 -1.011500 -3.198299 -12.213300 1.524800 -4.196799 2.749200 0.405900 -2.030500 3.095800 0.000004 0.000001 -0.000000 7.065706 10.137413 -44.362099 24.991008 -36.194808 8.284619 1.712800 -5.232795 -18.450100 0.000001 -0.000001 0.000000 -7.125004 -0.000001 -0.000001 -24.876184 46.796116 1.173571 0.000001 0.000001 0.000000 -0.287001 10.110209 28.005895 -21.192404 -32.052305 -6.151707 -26.518708 21.802903 18.466907 0.000002 0.000000 -0.000000 7.125008 -0.000001 0.000002 1.618491 50.439304 -0.216984 
0.271496 0.965909 -1.149612 -0.087800 3.114900 10.314601 -0.000002 -0.000001 0.000001 -19.008896 -5.395902 -21.465297 2.413606 9.679101 27.943707 3.544895 -11.819809 -34.085789 6.975605 15.311305 48.782078 0.000004 -0.000001 0.000001 20.557409 8.478310 -16.887701 -2.234984 -9.339398 26.862898 -1.852208 -7.109712 -29.084298 -0.464297 -4.370503 12.121501 1.533000 1.695300 -8.937700 -0.538200 2.129800 -1.079900 -1.158899 1.084099 3.964800 -1.015700 -3.193301 -12.214599 1.511100 -4.189299 2.780701 0.402300 -2.027300 3.106700 0.000001 0.000000 0.000000 7.026407 10.146214 -44.313000 24.974515 -36.177904 8.274824 1.720799 -5.219097 -18.424702 -0.000001 0.000000 -0.000003 -7.125007 0.000002 -0.000005 -24.857586 46.774119 1.158271 -0.000002 -0.000000 0.000000 -0.285000 10.005507 27.949493 -21.087307 -31.930110 -6.096003 -26.479011 21.774211 18.430801 -0.000000 -0.000002 0.000004 7.125002 -0.000001 0.000007 1.650797 50.393207 -0.219481 
0.271541 0.966135 -1.149510 -0.095300 3.075900 10.331500 -0.000003 0.000002 0.000000 -18.983189 -5.489100 -21.502897 2.419706 9.690403 27.979908 3.489789 -11.626509 -33.808685 6.926103 15.269405 48.594279 -0.000003 -0.000000 0.000001 20.557305 8.440806 -16.908002 -2.226384 -9.322600 26.809898 -1.823608 -7.092811 -28.885700 -0.426998 -4.193702 11.622204 1.551200 1.702300 -8.949401 -0.531300 2.136899 -1.087300 -1.160900 1.087799 3.964301 -1.023600 -3.186100 -12.213603 1.501700 -4.178300 2.809701 0.401100 -2.022200 3.116400 0.000004 0.000001 -0.000000 6.988508 10.156213 -44.262399 24.959308 -36.162297 8.265915 1.730003 -5.207600 -18.399801 0.000002 0.000001 -0.000001 -7.125000 0.000003 -0.000001 -24.838090 46.752816 1.143376 -0.000002 0.000001 -0.000000 -0.286800 9.920305 27.911095 -20.992306 -31.819304 -6.045897 -26.477114 21.786405 18.379511 -0.000002 0.000001 0.000001 7.125005 0.000001 -0.000001 1.642188 50.337101 -0.216083 
0.271586 0.966321 -1.149414 -0.104100 3.034200 10.350901 0.000000 0.000001 0.000003 -18.960002 -5.569201 -21.537794 2.425207 9.700502 28.012407 3.436794 -11.444209 -33.540187 6.879203 15.229403 48.416079 0.000003 -0.000003 -0.000001 20.558612 8.394106 -16.935003 -2.219090 -9.308299 26.764405 -1.799913 -7.058612 -28.708405 -0.391895 -4.020003 11.132903 1.572300 1.709500 -8.963400 -0.524800 2.143900 -1.095500 -1.164800 1.091498 3.964400 -1.032699 -3.176799 -12.212704 1.493300 -4.164400 2.838801 0.400700 -2.015700 3.126100 0.000001 0.000001 -0.000000 6.952607 10.168113 -44.212398 24.946013 -36.148701 8.258011 1.739700 -5.195894 -18.379399 0.000001 -0.000001 0.000000 -7.125001 -0.000002 0.000001 -24.820291 46.735522 1.131274 -0.000004 0.000002 -0.000000 -0.292602 9.859306 27.891192 -20.918407 -31.733004 -6.007003 -26.489314 21.816405 18.335609 0.000001 0.000002 -0.000002 7.125005 0.000000 -0.000005 1.621188 50.291410 -0.211489 
0.271631 0.966440 -1.149330 -0.110800 2.991500 10.372000 -0.000003 0.000001 0.000003 -18.942490 -5.645401 -21.560800 2.429006 9.707602 28.035007 3.386090 -11.263909 -33.282095 6.837105 15.193204 48.255679 0.000006 -0.000000 0.000003 20.557913 8.354107 -16.963203 -2.214190 -9.298598 26.734004 -1.781811 -7.023809 -28.567104 -0.359799 -3.853303 10.664403 1.589900 1.715501 -8.979001 -0.518600 2.149700 -1.104200 -1.167400 1.094500 3.964501 -1.044000 -3.165301 -12.208999 1.487200 -4.147500 2.864001 0.401700 -2.007700 3.134101 0.000001 -0.000001 -0.000001 6.918810 10.182114 -44.163908 24.935108 -36.137605 8.251619 1.745004 -5.186499 -18.359397 -0.000000 -0.000001 0.000000 -7.125004 -0.000001 0.000001 -24.806482 46.718016 1.119173 -0.000002 -0.000000 -0.000001 -0.302101 9.821607 27.886694 -20.869908 -31.676208 -5.981502 -26.495912 21.838109 18.305609 -0.000002 0.000000 0.000001 7.124998 0.000001 0.000002 1.608487 50.259903 -0.208590 
